<svg width="24" height="24" viewBox="0 0 24 24" fill="none" xmlns="http://www.w3.org/2000/svg">
<path d="M16.1016 9.43081C16.2578 9.27619 16.4687 9.18945 16.6884 9.18945C16.9082 9.18945 17.1191 9.27619 17.2752 9.43081C17.3523 9.50674 17.4135 9.59725 17.4553 9.69706C17.4971 9.79687 17.5187 9.904 17.5187 10.0122C17.5187 10.1204 17.4971 10.2276 17.4553 10.3274C17.4135 10.4272 17.3523 10.5177 17.2752 10.5936L12.5856 15.1896C12.4291 15.344 12.2181 15.4306 11.9982 15.4306C11.7784 15.4306 11.5673 15.344 11.4108 15.1896L6.72122 10.5936C6.64412 10.5177 6.58289 10.4272 6.5411 10.3274C6.49931 10.2276 6.47778 10.1204 6.47778 10.0122C6.47778 9.904 6.49931 9.79687 6.5411 9.69706C6.58289 9.59725 6.64412 9.50674 6.72122 9.43081C6.87738 9.27619 7.08826 9.18945 7.30802 9.18945C7.52778 9.18945 7.73866 9.27619 7.89482 9.43081L12 13.2L16.1016 9.43081Z" fill="#4A5568"/>
</svg>
