<svg width="24" height="24" viewBox="0 0 24 24" fill="none" xmlns="http://www.w3.org/2000/svg">
<path d="M20 3H12C11.45 3 11 3.45 11 4V5.61L11.01 5.62L16.01 10.12C16.64 10.68 17 11.5 17 12.35V13H19V15H17V17H19V19H17V21H20C20.55 21 21 20.55 21 20V4C21 3.45 20.55 3 20 3ZM15 7H13V5H15V7ZM19 11H17V9H19V11ZM19 7H17V5H19V7Z" fill="white"/>
<path d="M15 20V12.35C14.9997 12.2105 14.9701 12.0725 14.9133 11.9451C14.8565 11.8176 14.7736 11.7035 14.67 11.61L9.67 7.11C9.48876 6.93985 9.24858 6.84665 9 6.85C8.76 6.85 8.52 6.94 8.33 7.11L3.33 11.61C3.2249 11.7023 3.141 11.8162 3.08404 11.9439C3.02708 12.0716 2.99841 12.2102 3 12.35V20C3 20.55 3.45 21 4 21H6C6.55 21 7 20.55 7 20V16H11V20C11 20.55 11.45 21 12 21H14C14.55 21 15 20.55 15 20Z" fill="white"/>
</svg>
