<svg width="206" height="93" viewBox="0 0 206 93" fill="none" xmlns="http://www.w3.org/2000/svg">
<path d="M70.7344 40.9531C71.2031 40.9531 71.7891 41.0182 72.4922 41.1484C73.1953 41.2526 73.6771 41.3698 73.9375 41.5V48.1797C72.8177 47.9714 71.6328 47.8672 70.3828 47.8672C67.987 47.8672 65.9818 48.401 64.3672 49.4688C62.7786 50.5365 61.5807 52.0339 60.7734 53.9609V84H53.4688V41.7344H60.5781L60.7344 46.5391C61.8281 44.7682 63.2083 43.401 64.875 42.4375C66.5417 41.4479 68.4948 40.9531 70.7344 40.9531ZM77.2969 62.4375C77.2969 58.349 78.0781 54.6771 79.6406 51.4219C81.2031 48.1667 83.4297 45.6146 86.3203 43.7656C89.237 41.8906 92.6224 40.9531 96.4766 40.9531C100.383 40.9531 103.794 41.8906 106.711 43.7656C109.628 45.6146 111.867 48.1667 113.43 51.4219C114.992 54.6771 115.773 58.349 115.773 62.4375V63.3359C115.773 67.4245 114.992 71.0964 113.43 74.3516C111.867 77.5807 109.628 80.1328 106.711 82.0078C103.82 83.8568 100.435 84.7812 96.5547 84.7812C92.6745 84.7812 89.276 83.8568 86.3594 82.0078C83.4688 80.1328 81.2292 77.5807 79.6406 74.3516C78.0781 71.0964 77.2969 67.4245 77.2969 63.3359V62.4375ZM84.6016 63.3359C84.6016 66.2005 85.0443 68.8177 85.9297 71.1875C86.8411 73.5573 88.1953 75.4453 89.9922 76.8516C91.7891 78.2318 93.9766 78.9219 96.5547 78.9219C99.1068 78.9219 101.281 78.2318 103.078 76.8516C104.875 75.4453 106.216 73.5573 107.102 71.1875C108.013 68.8177 108.469 66.2005 108.469 63.3359V62.4375C108.469 59.5729 108.013 56.9557 107.102 54.5859C106.19 52.2161 104.836 50.3281 103.039 48.9219C101.242 47.5156 99.0547 46.8125 96.4766 46.8125C93.9245 46.8125 91.75 47.5156 89.9531 48.9219C88.1823 50.3281 86.8411 52.2161 85.9297 54.5859C85.0443 56.9557 84.6016 59.5729 84.6016 62.4375V63.3359ZM143.039 29.3125C140.721 29.3125 138.924 30.0026 137.648 31.3828C136.372 32.737 135.734 34.6901 135.734 37.2422V41.7344H144.719V47.2422H135.734V84H128.43V47.2422H121.789V41.7344H128.43V37.2422C128.43 32.737 129.654 29.2734 132.102 26.8516C134.576 24.4036 138 23.1797 142.375 23.1797C143.964 23.1797 145.617 23.388 147.336 23.8047L146.945 29.625C145.773 29.4167 144.471 29.3125 143.039 29.3125ZM157.023 26.3438C158.378 26.3438 159.432 26.7344 160.188 27.5156C160.969 28.2969 161.359 29.2865 161.359 30.4844C161.359 31.6562 160.969 32.6328 160.188 33.4141C159.432 34.1693 158.378 34.5469 157.023 34.5469C155.669 34.5469 154.615 34.1693 153.859 33.4141C153.13 32.6328 152.766 31.6562 152.766 30.4844C152.766 29.2865 153.13 28.2969 153.859 27.5156C154.615 26.7344 155.669 26.3438 157.023 26.3438ZM153.312 84V41.7344H160.617V84H153.312ZM172.766 84V24H180.07V84H172.766ZM192.219 84V24H199.523V84H192.219Z" fill="#474747"/>
<path d="M72.4922 41.1484L72.3101 42.1317L72.3278 42.135L72.3456 42.1376L72.4922 41.1484ZM73.9375 41.5H74.9375V40.882L74.3847 40.6056L73.9375 41.5ZM73.9375 48.1797L73.7546 49.1628L74.9375 49.3829V48.1797H73.9375ZM64.3672 49.4688L63.8156 48.6346L63.8094 48.6388L64.3672 49.4688ZM60.7734 53.9609L59.8511 53.5746L59.7734 53.7599V53.9609H60.7734ZM60.7734 84V85H61.7734V84H60.7734ZM53.4688 84H52.4688V85H53.4688V84ZM53.4688 41.7344V40.7344H52.4688V41.7344H53.4688ZM60.5781 41.7344L61.5776 41.7019L61.5461 40.7344H60.5781V41.7344ZM60.7344 46.5391L59.7349 46.5716L59.8427 49.8857L61.5852 47.0646L60.7344 46.5391ZM64.875 42.4375L65.3755 43.3033L65.3855 43.2974L64.875 42.4375ZM70.7344 41.9531C71.1191 41.9531 71.6393 42.0075 72.3101 42.1317L72.6743 40.1652C71.9389 40.029 71.2871 39.9531 70.7344 39.9531V41.9531ZM72.3456 42.1376C73.0519 42.2423 73.3882 42.3434 73.4903 42.3944L74.3847 40.6056C73.966 40.3962 73.3387 40.2629 72.6387 40.1592L72.3456 42.1376ZM72.9375 41.5V48.1797H74.9375V41.5H72.9375ZM74.1204 47.1966C72.9348 46.976 71.6883 46.8672 70.3828 46.8672V48.8672C71.5773 48.8672 72.7006 48.9667 73.7546 49.1628L74.1204 47.1966ZM70.3828 46.8672C67.8376 46.8672 65.6289 47.4355 63.8156 48.6346L64.9188 50.3029C66.3346 49.3666 68.1363 48.8672 70.3828 48.8672V46.8672ZM63.8094 48.6388C62.0437 49.8255 60.7267 51.4844 59.8511 53.5746L61.6958 54.3473C62.4347 52.5833 63.5136 51.2474 64.925 50.2987L63.8094 48.6388ZM59.7734 53.9609V84H61.7734V53.9609H59.7734ZM60.7734 83H53.4688V85H60.7734V83ZM54.4688 84V41.7344H52.4688V84H54.4688ZM53.4688 42.7344H60.5781V40.7344H53.4688V42.7344ZM59.5787 41.7669L59.7349 46.5716L61.7338 46.5066L61.5776 41.7019L59.5787 41.7669ZM61.5852 47.0646C62.5993 45.4226 63.8634 44.1774 65.3755 43.3032L64.3745 41.5718C62.5533 42.6247 61.0569 44.1138 59.8836 46.0136L61.5852 47.0646ZM65.3855 43.2974C66.875 42.413 68.6461 41.9531 70.7344 41.9531V39.9531C68.3435 39.9531 66.2083 40.4829 64.3645 41.5776L65.3855 43.2974ZM86.3203 43.7656L86.8592 44.608L86.8611 44.6068L86.3203 43.7656ZM106.711 43.7656L106.17 44.6068L106.176 44.6102L106.711 43.7656ZM113.43 74.3516L114.33 74.7871L114.331 74.7843L113.43 74.3516ZM106.711 82.0078L107.25 82.8502L107.252 82.849L106.711 82.0078ZM86.3594 82.0078L85.8152 82.8468L85.824 82.8524L86.3594 82.0078ZM79.6406 74.3516L78.7391 74.7843L78.7433 74.793L79.6406 74.3516ZM85.9297 71.1875L84.9929 71.5375L84.9963 71.5465L85.9297 71.1875ZM89.9922 76.8516L89.3759 77.6391L89.383 77.6446L89.9922 76.8516ZM103.078 76.8516L103.687 77.6446L103.694 77.6391L103.078 76.8516ZM107.102 71.1875L106.168 70.8285L106.165 70.8375L107.102 71.1875ZM89.9531 48.9219L89.3368 48.1344L89.3312 48.1388L89.9531 48.9219ZM85.9297 54.5859L84.9963 54.2269L84.9929 54.2359L85.9297 54.5859ZM78.2969 62.4375C78.2969 58.4789 79.0526 54.9579 80.5421 51.8546L78.7391 50.9891C77.1037 54.3963 76.2969 58.2191 76.2969 62.4375H78.2969ZM80.5421 51.8546C82.0286 48.7578 84.1335 46.3515 86.8592 44.608L85.7815 42.9232C82.7259 44.8777 80.3777 47.5755 78.7391 50.9891L80.5421 51.8546ZM86.8611 44.6068C89.5988 42.8468 92.792 41.9531 96.4766 41.9531V39.9531C92.4528 39.9531 88.8752 40.9344 85.7796 42.9244L86.8611 44.6068ZM96.4766 41.9531C100.216 41.9531 103.435 42.8482 106.17 44.6068L107.252 42.9244C104.154 40.933 100.55 39.9531 96.4766 39.9531V41.9531ZM106.176 44.6102C108.927 46.3542 111.043 48.7602 112.528 51.8546L114.331 50.9891C112.692 47.5731 110.329 44.875 107.246 42.921L106.176 44.6102ZM112.528 51.8546C114.018 54.9579 114.773 58.4789 114.773 62.4375H116.773C116.773 58.2191 115.967 54.3963 114.331 50.9891L112.528 51.8546ZM114.773 62.4375V63.3359H116.773V62.4375H114.773ZM114.773 63.3359C114.773 67.2946 114.018 70.8155 112.528 73.9188L114.331 74.7843C115.967 71.3772 116.773 67.5544 116.773 63.3359H114.773ZM112.53 73.916C111.044 76.9855 108.926 79.3947 106.17 81.1666L107.252 82.849C110.329 80.8709 112.69 78.176 114.33 74.7871L112.53 73.916ZM106.172 81.1654C103.463 82.8984 100.27 83.7812 96.5547 83.7812V85.7812C100.6 85.7812 104.178 84.8151 107.25 82.8502L106.172 81.1654ZM96.5547 83.7812C92.8399 83.7812 89.6321 82.8985 86.8948 81.1632L85.824 82.8524C88.92 84.8151 92.509 85.7812 96.5547 85.7812V83.7812ZM86.9036 81.1689C84.1713 79.3965 82.0505 76.9849 80.5379 73.9101L78.7433 74.793C80.4078 78.1766 82.7662 80.8691 85.8152 82.8468L86.9036 81.1689ZM80.5421 73.9188C79.0526 70.8155 78.2969 67.2946 78.2969 63.3359H76.2969C76.2969 67.5544 77.1037 71.3772 78.7391 74.7843L80.5421 73.9188ZM78.2969 63.3359V62.4375H76.2969V63.3359H78.2969ZM83.6016 63.3359C83.6016 66.3044 84.0605 69.042 84.9929 71.5375L86.8664 70.8375C86.028 68.5935 85.6016 66.0967 85.6016 63.3359H83.6016ZM84.9963 71.5465C85.9652 74.0656 87.4209 76.109 89.3759 77.6391L90.6085 76.0641C88.9698 74.7816 87.7171 73.049 86.863 70.8285L84.9963 71.5465ZM89.383 77.6446C91.3783 79.1772 93.7881 79.9219 96.5547 79.9219V77.9219C94.165 77.9219 92.1998 77.2863 90.6013 76.0585L89.383 77.6446ZM96.5547 79.9219C99.2978 79.9219 101.694 79.1758 103.687 77.6446L102.469 76.0585C100.869 77.2877 98.9157 77.9219 96.5547 77.9219V79.9219ZM103.694 77.6391C105.652 76.1072 107.096 74.0605 108.038 71.5375L106.165 70.8375C105.337 73.0541 104.098 74.7834 102.462 76.0641L103.694 77.6391ZM108.035 71.5465C108.996 69.0484 109.469 66.3076 109.469 63.3359H107.469C107.469 66.0934 107.03 68.587 106.168 70.8285L108.035 71.5465ZM109.469 63.3359V62.4375H107.469V63.3359H109.469ZM109.469 62.4375C109.469 59.4658 108.996 56.725 108.035 54.227L106.168 54.9449C107.03 57.1864 107.469 59.68 107.469 62.4375H109.469ZM108.035 54.227C107.066 51.7078 105.61 49.6644 103.655 48.1344L102.423 49.7094C104.061 50.9919 105.314 52.7245 106.168 54.9449L108.035 54.227ZM103.655 48.1344C101.66 46.5727 99.2475 45.8125 96.4766 45.8125V47.8125C98.8618 47.8125 100.824 48.4585 102.423 49.7094L103.655 48.1344ZM96.4766 45.8125C93.729 45.8125 91.3304 46.5741 89.3368 48.1344L90.5694 49.7094C92.1696 48.4571 94.1199 47.8125 96.4766 47.8125V45.8125ZM89.3312 48.1388C87.404 49.6692 85.9638 51.7115 84.9963 54.227L86.863 54.9449C87.7185 52.7208 88.9606 50.987 90.575 49.705L89.3312 48.1388ZM84.9929 54.2359C84.0605 56.7315 83.6016 59.4691 83.6016 62.4375H85.6016C85.6016 59.6768 86.028 57.18 86.8664 54.9359L84.9929 54.2359ZM83.6016 62.4375V63.3359H85.6016V62.4375H83.6016ZM137.648 31.3828L138.376 32.0686L138.383 32.0617L137.648 31.3828ZM135.734 41.7344H134.734V42.7344H135.734V41.7344ZM144.719 41.7344H145.719V40.7344H144.719V41.7344ZM144.719 47.2422V48.2422H145.719V47.2422H144.719ZM135.734 47.2422V46.2422H134.734V47.2422H135.734ZM135.734 84V85H136.734V84H135.734ZM128.43 84H127.43V85H128.43V84ZM128.43 47.2422H129.43V46.2422H128.43V47.2422ZM121.789 47.2422H120.789V48.2422H121.789V47.2422ZM121.789 41.7344V40.7344H120.789V41.7344H121.789ZM128.43 41.7344V42.7344H129.43V41.7344H128.43ZM132.102 26.8516L132.805 27.5624L132.805 27.5624L132.102 26.8516ZM147.336 23.8047L148.334 23.8717L148.39 23.0313L147.572 22.8328L147.336 23.8047ZM146.945 29.625L146.77 30.6096L147.868 30.8048L147.943 29.692L146.945 29.625ZM143.039 28.3125C140.512 28.3125 138.422 29.0728 136.914 30.704L138.383 32.0617C139.427 30.9324 140.93 30.3125 143.039 30.3125V28.3125ZM136.921 30.697C135.413 32.2965 134.734 34.5312 134.734 37.2422H136.734C136.734 34.849 137.331 33.1775 138.376 32.0686L136.921 30.697ZM134.734 37.2422V41.7344H136.734V37.2422H134.734ZM135.734 42.7344H144.719V40.7344H135.734V42.7344ZM143.719 41.7344V47.2422H145.719V41.7344H143.719ZM144.719 46.2422H135.734V48.2422H144.719V46.2422ZM134.734 47.2422V84H136.734V47.2422H134.734ZM135.734 83H128.43V85H135.734V83ZM129.43 84V47.2422H127.43V84H129.43ZM128.43 46.2422H121.789V48.2422H128.43V46.2422ZM122.789 47.2422V41.7344H120.789V47.2422H122.789ZM121.789 42.7344H128.43V40.7344H121.789V42.7344ZM129.43 41.7344V37.2422H127.43V41.7344H129.43ZM129.43 37.2422C129.43 32.9183 130.6 29.7437 132.805 27.5624L131.398 26.1407C128.707 28.8032 127.43 32.5557 127.43 37.2422H129.43ZM132.805 27.5624C135.046 25.3445 138.192 24.1797 142.375 24.1797V22.1797C137.808 22.1797 134.105 23.4628 131.398 26.1407L132.805 27.5624ZM142.375 24.1797C143.876 24.1797 145.45 24.3765 147.1 24.7765L147.572 22.8328C145.784 22.3996 144.051 22.1797 142.375 22.1797V24.1797ZM146.338 23.7377L145.948 29.558L147.943 29.692L148.334 23.8717L146.338 23.7377ZM147.12 28.6404C145.88 28.42 144.519 28.3125 143.039 28.3125V30.3125C144.424 30.3125 145.666 30.4133 146.77 30.6096L147.12 28.6404ZM160.188 27.5156L159.469 28.2106L159.474 28.2167L159.48 28.2227L160.188 27.5156ZM160.188 33.4141L160.895 34.1212L160.188 33.4141ZM153.859 33.4141L153.128 34.0964L153.14 34.109L153.152 34.1212L153.859 33.4141ZM153.859 27.5156L153.14 26.8206L153.134 26.8269L153.128 26.8333L153.859 27.5156ZM153.312 84H152.312V85H153.312V84ZM153.312 41.7344V40.7344H152.312V41.7344H153.312ZM160.617 41.7344H161.617V40.7344H160.617V41.7344ZM160.617 84V85H161.617V84H160.617ZM157.023 27.3438C158.177 27.3438 158.946 27.67 159.469 28.2106L160.906 26.8206C159.919 25.7987 158.578 25.3438 157.023 25.3438V27.3438ZM159.48 28.2227C160.057 28.7997 160.359 29.527 160.359 30.4844H162.359C162.359 29.0459 161.88 27.794 160.895 26.8085L159.48 28.2227ZM160.359 30.4844C160.359 31.4089 160.062 32.1255 159.48 32.707L160.895 34.1212C161.876 33.1401 162.359 31.9036 162.359 30.4844H160.359ZM159.48 32.707C158.96 33.2277 158.187 33.5469 157.023 33.5469V35.5469C158.568 35.5469 159.905 35.1108 160.895 34.1212L159.48 32.707ZM157.023 33.5469C155.86 33.5469 155.087 33.2277 154.566 32.707L153.152 34.1212C154.142 35.1108 155.479 35.5469 157.023 35.5469V33.5469ZM154.59 32.7317C154.051 32.1542 153.766 31.4296 153.766 30.4844H151.766C151.766 31.8829 152.209 33.1114 153.128 34.0964L154.59 32.7317ZM153.766 30.4844C153.766 29.5066 154.055 28.7711 154.59 28.1979L153.128 26.8333C152.205 27.8226 151.766 29.0663 151.766 30.4844H153.766ZM154.578 28.2106C155.101 27.67 155.869 27.3438 157.023 27.3438V25.3438C155.469 25.3438 154.128 25.7987 153.14 26.8206L154.578 28.2106ZM154.312 84V41.7344H152.312V84H154.312ZM153.312 42.7344H160.617V40.7344H153.312V42.7344ZM159.617 41.7344V84H161.617V41.7344H159.617ZM160.617 83H153.312V85H160.617V83ZM172.766 84H171.766V85H172.766V84ZM172.766 24V23H171.766V24H172.766ZM180.07 24H181.07V23H180.07V24ZM180.07 84V85H181.07V84H180.07ZM173.766 84V24H171.766V84H173.766ZM172.766 25H180.07V23H172.766V25ZM179.07 24V84H181.07V24H179.07ZM180.07 83H172.766V85H180.07V83ZM192.219 84H191.219V85H192.219V84ZM192.219 24V23H191.219V24H192.219ZM199.523 24H200.523V23H199.523V24ZM199.523 84V85H200.523V84H199.523ZM193.219 84V24H191.219V84H193.219ZM192.219 25H199.523V23H192.219V25ZM198.523 24V84H200.523V24H198.523ZM199.523 83H192.219V85H199.523V83Z" fill="white"/>
<path d="M27.6172 27.125C31.8099 27.125 35.4036 27.8672 38.3984 29.3516C41.4193 30.8099 43.6979 32.8411 45.2344 35.4453C46.7969 38.0495 47.5781 41.0573 47.5781 44.4688C47.5781 48.1146 46.8099 51.2266 45.2734 53.8047C43.737 56.3828 41.4714 58.349 38.4766 59.7031C35.5078 61.0312 31.888 61.6953 27.6172 61.6953H14.1797V84H6.60156V27.125H27.6172ZM27.6172 55.6016C31.8359 55.6016 34.9479 54.612 36.9531 52.6328C38.9844 50.6536 40 47.9583 40 44.5469C40 42.4896 39.5573 40.6146 38.6719 38.9219C37.8125 37.2031 36.4453 35.8359 34.5703 34.8203C32.7214 33.7786 30.4036 33.2578 27.6172 33.2578H14.1797V55.6016H27.6172Z" fill="#9095FF"/>
<path d="M27.6172 27.125C31.8099 27.125 35.4036 27.8672 38.3984 29.3516C41.4193 30.8099 43.6979 32.8411 45.2344 35.4453C46.7969 38.0495 47.5781 41.0573 47.5781 44.4688C47.5781 48.1146 46.8099 51.2266 45.2734 53.8047C43.737 56.3828 41.4714 58.349 38.4766 59.7031C35.5078 61.0312 31.888 61.6953 27.6172 61.6953H14.1797V84H6.60156V27.125H27.6172ZM27.6172 55.6016C31.8359 55.6016 34.9479 54.612 36.9531 52.6328C38.9844 50.6536 40 47.9583 40 44.5469C40 42.4896 39.5573 40.6146 38.6719 38.9219C37.8125 37.2031 36.4453 35.8359 34.5703 34.8203C32.7214 33.7786 30.4036 33.2578 27.6172 33.2578H14.1797V55.6016H27.6172Z" fill="url(#paint0_linear)"/>
<path d="M38.3984 29.3516L37.9543 30.2476L37.9637 30.2521L38.3984 29.3516ZM45.2344 35.4453L44.3731 35.9535L44.3769 35.9598L45.2344 35.4453ZM38.4766 59.7031L38.8849 60.616L38.8886 60.6143L38.4766 59.7031ZM14.1797 61.6953V60.6953H13.1797V61.6953H14.1797ZM14.1797 84V85H15.1797V84H14.1797ZM6.60156 84H5.60156V85H6.60156V84ZM6.60156 27.125V26.125H5.60156V27.125H6.60156ZM36.9531 52.6328L36.2552 51.9166L36.2507 51.9211L36.9531 52.6328ZM38.6719 38.9219L37.7774 39.3691L37.7815 39.3773L37.7858 39.3854L38.6719 38.9219ZM34.5703 34.8203L34.0795 35.6916L34.0867 35.6956L34.094 35.6996L34.5703 34.8203ZM14.1797 33.2578V32.2578H13.1797V33.2578H14.1797ZM14.1797 55.6016H13.1797V56.6016H14.1797V55.6016ZM27.6172 28.125C31.694 28.125 35.1282 28.8467 37.9543 30.2475L38.8425 28.4556C35.6791 26.8876 31.9257 26.125 27.6172 26.125V28.125ZM37.9637 30.2521C40.8269 31.6344 42.9478 33.5377 44.3731 35.9535L46.0956 34.9372C44.448 32.1446 42.0116 29.9854 38.8332 28.451L37.9637 30.2521ZM44.3769 35.9598C45.835 38.39 46.5781 41.2156 46.5781 44.4688H48.5781C48.5781 40.8989 47.7587 37.7089 46.0919 34.9308L44.3769 35.9598ZM46.5781 44.4688C46.5781 47.9731 45.8406 50.8996 44.4144 53.2927L46.1325 54.3166C47.7792 51.5535 48.5781 48.2561 48.5781 44.4688H46.5781ZM44.4144 53.2927C42.9926 55.6785 40.8916 57.5136 38.0646 58.7919L38.8886 60.6143C42.0511 59.1843 44.4813 57.0871 46.1325 54.3166L44.4144 53.2927ZM38.0682 58.7903C35.2614 60.046 31.7893 60.6953 27.6172 60.6953V62.6953C31.9867 62.6953 35.7542 62.0165 38.8849 60.6159L38.0682 58.7903ZM27.6172 60.6953H14.1797V62.6953H27.6172V60.6953ZM13.1797 61.6953V84H15.1797V61.6953H13.1797ZM14.1797 83H6.60156V85H14.1797V83ZM7.60156 84V27.125H5.60156V84H7.60156ZM6.60156 28.125H27.6172V26.125H6.60156V28.125ZM27.6172 56.6016C31.9698 56.6016 35.388 55.5827 37.6556 53.3445L36.2507 51.9211C34.5078 53.6413 31.7021 54.6016 27.6172 54.6016V56.6016ZM37.651 53.349C39.9138 51.1442 41 48.1693 41 44.5469H39C39 47.7474 38.0549 50.163 36.2553 51.9166L37.651 53.349ZM41 44.5469C41 42.3409 40.5239 40.305 39.558 38.4584L37.7858 39.3854C38.5907 40.9242 39 42.6383 39 44.5469H41ZM39.5663 38.4747C38.6052 36.5524 37.0813 35.0432 35.0466 33.941L34.094 35.6996C35.8093 36.6287 37.0198 37.8538 37.7774 39.3691L39.5663 38.4747ZM35.0612 33.9491C33.0227 32.8006 30.5234 32.2578 27.6172 32.2578V34.2578C30.2839 34.2578 32.4201 34.7567 34.0795 35.6916L35.0612 33.9491ZM27.6172 32.2578H14.1797V34.2578H27.6172V32.2578ZM13.1797 33.2578V55.6016H15.1797V33.2578H13.1797ZM14.1797 56.6016H27.6172V54.6016H14.1797V56.6016Z" fill="white"/>
<defs>
<linearGradient id="paint0_linear" x1="25.5" y1="0" x2="25.5" y2="93" gradientUnits="userSpaceOnUse">
<stop stop-color="#1382DE"/>
<stop offset="1" stop-color="white" stop-opacity="0"/>
</linearGradient>
</defs>
</svg>
