<svg width="239" height="106" viewBox="0 0 239 106" fill="none" xmlns="http://www.w3.org/2000/svg">
<path d="M62.4609 67.5076H75.1875V81.2185H62.4609V104H45.375V81.2185H1.14844L0.65625 70.8123L44.8125 1.62476H62.4609V67.5076ZM18.5859 67.5076H45.375V24.7576L44.1094 27.0076L18.5859 67.5076ZM153.234 60.8982C153.234 75.6169 150.469 86.7263 144.938 94.2263C139.453 101.679 131.086 105.406 119.836 105.406C108.773 105.406 100.43 101.773 94.8047 94.5076C89.2266 87.1951 86.3672 76.3904 86.2266 62.0935V44.3748C86.2266 29.656 88.9688 18.6169 94.4531 11.2576C99.9844 3.89819 108.398 0.218506 119.695 0.218506C130.898 0.218506 139.242 3.80444 144.727 10.9763C150.258 18.1482 153.094 28.8826 153.234 43.1794V60.8982ZM136.148 41.7732C136.148 32.1638 134.836 25.1326 132.211 20.6794C129.586 16.1794 125.414 13.9294 119.695 13.9294C114.117 13.9294 110.016 16.0623 107.391 20.3279C104.766 24.5466 103.383 31.156 103.242 40.156V63.3591C103.242 72.9216 104.578 80.0466 107.25 84.7341C109.922 89.4216 114.117 91.7654 119.836 91.7654C125.32 91.7654 129.375 89.6091 132 85.2966C134.625 80.9373 136.008 74.1404 136.148 64.906V41.7732ZM226.148 67.5076H238.875V81.2185H226.148V104H209.062V81.2185H164.836L164.344 70.8123L208.5 1.62476H226.148V67.5076ZM182.273 67.5076H209.062V24.7576L207.797 27.0076L182.273 67.5076Z" fill="#9095FF"/>
<path d="M62.4609 67.5076H75.1875V81.2185H62.4609V104H45.375V81.2185H1.14844L0.65625 70.8123L44.8125 1.62476H62.4609V67.5076ZM18.5859 67.5076H45.375V24.7576L44.1094 27.0076L18.5859 67.5076ZM153.234 60.8982C153.234 75.6169 150.469 86.7263 144.938 94.2263C139.453 101.679 131.086 105.406 119.836 105.406C108.773 105.406 100.43 101.773 94.8047 94.5076C89.2266 87.1951 86.3672 76.3904 86.2266 62.0935V44.3748C86.2266 29.656 88.9688 18.6169 94.4531 11.2576C99.9844 3.89819 108.398 0.218506 119.695 0.218506C130.898 0.218506 139.242 3.80444 144.727 10.9763C150.258 18.1482 153.094 28.8826 153.234 43.1794V60.8982ZM136.148 41.7732C136.148 32.1638 134.836 25.1326 132.211 20.6794C129.586 16.1794 125.414 13.9294 119.695 13.9294C114.117 13.9294 110.016 16.0623 107.391 20.3279C104.766 24.5466 103.383 31.156 103.242 40.156V63.3591C103.242 72.9216 104.578 80.0466 107.25 84.7341C109.922 89.4216 114.117 91.7654 119.836 91.7654C125.32 91.7654 129.375 89.6091 132 85.2966C134.625 80.9373 136.008 74.1404 136.148 64.906V41.7732ZM226.148 67.5076H238.875V81.2185H226.148V104H209.062V81.2185H164.836L164.344 70.8123L208.5 1.62476H226.148V67.5076ZM182.273 67.5076H209.062V24.7576L207.797 27.0076L182.273 67.5076Z" fill="url(#paint0_linear)"/>
<defs>
<linearGradient id="paint0_linear" x1="120" y1="-30.0002" x2="120" y2="139" gradientUnits="userSpaceOnUse">
<stop stop-color="#1382DE"/>
<stop offset="1" stop-color="white" stop-opacity="0"/>
</linearGradient>
</defs>
</svg>
