<svg width="872" height="566" viewBox="0 0 872 566" fill="none" xmlns="http://www.w3.org/2000/svg">
<mask id="path-1-inside-1" fill="white">
<path fill-rule="evenodd" clip-rule="evenodd" d="M547.118 29.9246C559.144 25.2109 572.407 22.5985 586.345 22.5985C636.492 22.5985 677.92 56.4201 684.349 100.257C694.587 96.7142 705.651 94.7801 717.195 94.7801C769.76 94.7801 812.371 134.881 812.371 184.348C812.371 200.147 808.025 214.991 800.395 227.878C841.558 234.735 872 259.135 872 288.184C872 319.71 836.145 345.761 789.644 349.854C810.015 385.995 810.555 426.581 786.989 455.75C759.75 489.464 708.282 498.051 659.433 480.951C660.123 484.545 660.431 488.223 660.326 491.962C659.267 529.69 616.55 559.235 564.915 557.951C525.544 556.973 492.357 538.354 479.282 512.84C464.456 544.163 431.086 566 392.298 566C353.096 566 319.43 543.696 304.846 511.837C288.235 525.807 267.61 532.709 246.938 529.223C214.671 523.782 191.851 494.643 187.961 458.578C173.491 466.936 156.464 471.756 138.241 471.756C85.6772 471.756 43.0655 431.655 43.0655 382.188C43.0655 370.455 45.4629 359.248 49.822 348.979C19.8352 333.013 0 305.304 0 273.795C0 230.094 38.1537 193.703 88.6274 185.813C84.5454 175.831 82.3079 164.988 82.3079 153.653C82.3079 104.186 124.92 64.0849 177.484 64.0849C194.157 64.0849 209.829 68.1196 223.457 75.208C234.847 44.3848 258.772 19.0246 291.939 7.04821C333.328 -7.89772 378.836 1.70979 412.762 28.4571C430.3 14.0854 453.554 5.33244 479.066 5.33244C505.434 5.33244 529.392 14.6835 547.118 29.9246Z"/>
</mask>
<path d="M547.118 29.9246L546.466 30.6829L546.922 31.0754L547.483 30.8557L547.118 29.9246ZM684.349 100.257L683.36 100.402L683.535 101.597L684.676 101.202L684.349 100.257ZM800.395 227.878L799.535 227.368L798.791 228.624L800.231 228.864L800.395 227.878ZM789.644 349.854L789.556 348.858L788.011 348.994L788.772 350.345L789.644 349.854ZM786.989 455.75L786.211 455.122L786.211 455.122L786.989 455.75ZM659.433 480.951L659.764 480.007L658.123 479.433L658.451 481.139L659.433 480.951ZM660.326 491.962L661.326 491.99L661.326 491.99L660.326 491.962ZM564.915 557.951L564.94 556.952L564.94 556.952L564.915 557.951ZM479.282 512.84L480.172 512.384L479.246 510.578L478.378 512.413L479.282 512.84ZM304.846 511.837L305.756 511.42L305.209 510.225L304.203 511.071L304.846 511.837ZM246.938 529.223L246.771 530.209L246.771 530.209L246.938 529.223ZM187.961 458.578L188.955 458.47L188.791 456.943L187.461 457.712L187.961 458.578ZM49.822 348.979L50.7425 349.37L51.1004 348.527L50.292 348.096L49.822 348.979ZM88.6274 185.813L88.7818 186.801L90.0319 186.606L89.553 185.435L88.6274 185.813ZM223.457 75.208L222.995 76.0951L224.001 76.6185L224.395 75.5546L223.457 75.208ZM291.939 7.04821L292.278 7.98877L291.939 7.04821ZM412.762 28.4571L412.143 29.2424L412.774 29.74L413.396 29.2306L412.762 28.4571ZM547.483 30.8557C559.393 26.1873 572.533 23.5985 586.345 23.5985V21.5985C572.282 21.5985 558.895 24.2345 546.753 28.9936L547.483 30.8557ZM586.345 23.5985C636.065 23.5985 677.012 57.1212 683.36 100.402L685.339 100.112C678.828 55.719 636.92 21.5985 586.345 21.5985V23.5985ZM684.676 101.202C694.81 97.6954 705.764 95.7801 717.195 95.7801V93.7801C705.539 93.7801 694.365 95.7331 684.022 99.312L684.676 101.202ZM717.195 95.7801C769.266 95.7801 811.371 135.49 811.371 184.348H813.371C813.371 134.272 770.254 93.7801 717.195 93.7801V95.7801ZM811.371 184.348C811.371 199.96 807.077 214.629 799.535 227.368L801.256 228.387C808.973 215.352 813.371 200.334 813.371 184.348H811.371ZM800.231 228.864C820.672 232.269 838.399 240.023 850.995 250.478C863.589 260.932 871 274.034 871 288.184H873C873 273.285 865.19 259.662 852.272 248.94C839.356 238.218 821.282 230.343 800.56 226.891L800.231 228.864ZM871 288.184C871 303.538 862.27 317.664 847.664 328.503C833.06 339.34 812.655 346.825 789.556 348.858L789.731 350.85C813.134 348.79 833.907 341.202 848.856 330.109C863.802 319.018 873 304.356 873 288.184H871ZM788.772 350.345C809 386.23 809.454 426.353 786.211 455.122L787.767 456.379C811.657 426.809 811.03 385.76 790.515 349.363L788.772 350.345ZM786.211 455.122C759.325 488.399 708.362 497.02 659.764 480.007L659.103 481.895C708.202 499.083 760.175 490.529 787.767 456.379L786.211 455.122ZM658.451 481.139C659.128 484.664 659.43 488.269 659.327 491.933L661.326 491.99C661.433 488.178 661.119 484.427 660.415 480.762L658.451 481.139ZM659.327 491.933C658.808 510.402 648.093 526.954 631.018 538.764C613.943 550.573 590.568 557.589 564.94 556.952L564.89 558.951C590.897 559.598 614.698 552.483 632.155 540.409C649.612 528.335 660.785 511.25 661.326 491.99L659.327 491.933ZM564.94 556.952C525.823 555.979 493.034 537.483 480.172 512.384L478.392 513.296C491.68 539.225 525.266 557.966 564.89 558.951L564.94 556.952ZM478.378 512.413C463.722 543.376 430.711 565 392.298 565V567C431.462 567 465.189 544.951 480.185 513.268L478.378 512.413ZM392.298 565C353.475 565 320.171 542.913 305.756 511.42L303.937 512.253C318.688 544.479 352.717 567 392.298 567V565ZM304.203 511.071C287.776 524.886 267.44 531.666 247.104 528.237L246.771 530.209C267.78 533.752 288.693 526.728 305.49 512.602L304.203 511.071ZM247.104 528.237C215.387 522.889 192.81 494.211 188.955 458.47L186.967 458.685C190.892 495.076 213.954 524.675 246.771 530.209L247.104 528.237ZM187.461 457.712C173.141 465.983 156.287 470.756 138.241 470.756V472.756C156.642 472.756 173.841 467.889 188.461 459.443L187.461 457.712ZM138.241 470.756C86.1714 470.756 44.0655 431.046 44.0655 382.188H42.0655C42.0655 432.264 85.183 472.756 138.241 472.756V470.756ZM44.0655 382.188C44.0655 370.592 46.4346 359.519 50.7425 349.37L48.9015 348.588C44.4913 358.978 42.0655 370.317 42.0655 382.188H44.0655ZM50.292 348.096C20.5534 332.263 1 304.854 1 273.795H-1C-1 305.754 19.117 333.764 49.3521 349.862L50.292 348.096ZM1 273.795C1 230.732 38.6363 194.64 88.7818 186.801L88.4729 184.825C37.6711 192.767 -1 229.457 -1 273.795H1ZM89.553 185.435C85.5189 175.57 83.3079 164.855 83.3079 153.653H81.3079C81.3079 165.121 83.5719 176.093 87.7018 186.192L89.553 185.435ZM83.3079 153.653C83.3079 104.794 125.414 65.0849 177.484 65.0849V63.0849C124.425 63.0849 81.3079 103.577 81.3079 153.653H83.3079ZM177.484 65.0849C193.994 65.0849 209.508 69.08 222.995 76.0951L223.918 74.3208C210.149 67.1591 194.319 63.0849 177.484 63.0849V65.0849ZM224.395 75.5546C235.688 44.9944 259.402 19.8603 292.278 7.98877L291.599 6.10765C258.142 18.189 234.006 43.7752 222.519 74.8613L224.395 75.5546ZM292.278 7.98877C333.31 -6.82776 378.459 2.68602 412.143 29.2424L413.381 27.6718C379.213 0.733555 333.347 -8.96768 291.599 6.10765L292.278 7.98877ZM413.396 29.2306C430.753 15.0065 453.784 6.33244 479.066 6.33244V4.33244C453.325 4.33244 429.846 13.1643 412.128 27.6836L413.396 29.2306ZM479.066 6.33244C505.197 6.33244 528.923 15.5992 546.466 30.6829L547.77 29.1664C529.86 13.7677 505.671 4.33244 479.066 4.33244V6.33244Z" fill="#9095FF" mask="url(#path-1-inside-1)"/>
</svg>
