<svg width="20" height="20" viewBox="0 0 20 20" fill="none" xmlns="http://www.w3.org/2000/svg">
<path d="M8.31464 10.8572L12.559 13.3375C13.1723 12.596 14.08 12.1357 15.1105 12.1357C16.975 12.1357 18.4716 13.721 18.4716 15.6643C18.4716 17.6076 16.975 19.1673 15.1105 19.1673C13.2214 19.1673 11.7248 17.6076 11.7248 15.6643C11.7248 15.4597 11.7493 15.2296 11.7739 15.0251L7.40689 12.4937C6.79355 13.1329 5.95941 13.5165 5.02713 13.5165C3.16257 13.5165 1.66602 11.9567 1.66602 10.0134C1.66602 8.07015 3.16257 6.51041 5.02713 6.51041C5.98394 6.51041 6.86715 6.91953 7.48049 7.58433L11.8229 5.12966C11.7739 4.87397 11.7248 4.61827 11.7248 4.36258C11.7248 2.41929 13.2214 0.833984 15.1105 0.833984C16.975 0.833984 18.4716 2.41929 18.4716 4.36258C18.4716 6.30586 16.975 7.8656 15.1105 7.8656C14.1536 7.8656 13.295 7.48206 12.6816 6.79168L8.31464 9.22078C8.3637 9.47648 8.38824 9.75774 8.38824 10.0134C8.38824 10.2947 8.3637 10.6015 8.31464 10.8572Z" fill="white"/>
</svg>
