<svg width="1152" height="889" viewBox="0 0 1152 889" fill="none" xmlns="http://www.w3.org/2000/svg">
<path d="M83.1878 689.282C24.9907 646.581 -14.8536 594.031 -12.575 545.961C-9.81373 498.311 35.0331 455.506 56.1473 398.006C77.2614 340.507 74.6429 268.313 120.789 228.228C167.455 188.198 262.366 180.221 334.869 206.373C406.852 232.469 456.909 293.112 524.281 338.633C591.69 383.789 676.375 414.186 704.001 457.692C731.626 501.198 701.634 558.122 646.056 587.615C590.477 617.109 509.832 619.226 446.824 649.405C383.778 679.948 338.89 738.606 278.153 751.693C217.415 764.779 140.865 731.928 83.1878 689.282Z" fill="#87A8FF"/>
<path d="M1004.67 421.551C988.292 493.881 950.311 562.618 893.851 600.782C837.602 638.293 763.315 644.955 685.467 678.872C607.62 712.79 526.213 773.962 454.319 777.553C382.196 780.767 319.814 726.777 309.175 658.959C298.764 591.518 340.309 509.594 354.782 429.086C368.816 348.855 356.22 269.763 390.67 216.277C425.121 162.792 507.286 135.014 572.311 146.172C637.336 157.329 684.993 207.044 754.971 222.378C825.388 237.435 917.899 217.732 966.982 245.704C1016.07 273.676 1021.28 349.599 1004.67 421.551Z" fill="#9195FF"/>
<path d="M528.873 400.255C524.799 360.064 594.07 330.142 661.214 320.3C728.001 310.505 793.018 320.741 814.63 356.578C835.851 392.18 814.306 452.724 852.27 494.693C890.625 536.897 988.808 560.196 1016.02 600.161C1043.23 640.126 999.391 696.193 940.21 717.306C881.028 738.419 806.144 724.626 737.895 717.404C669.291 710.23 607.713 709.861 600.461 681.57C592.854 653.327 640.284 597.065 625.503 543.963C610.367 490.907 532.984 440.729 528.873 400.255Z" fill="#9EA2FF"/>
<path d="M683.93 306.462C815.229 357.346 1051.03 316.639 1187.69 326.816C1324.35 336.457 1363.2 397.518 1301.57 444.117C1239.94 491.252 1077.83 523.925 1014.86 584.451C951.888 645.512 986.722 734.425 915.713 745.138C844.705 755.315 669.192 687.29 497.699 684.612C326.206 681.934 158.733 744.067 117.199 726.927C74.3262 709.787 157.393 613.374 97.1026 555.527C36.8121 497.68 -168.175 477.862 -177.554 456.437C-188.272 434.476 -3.38151 410.373 114.52 392.162C232.421 373.951 283.333 361.631 335.585 292C387.837 222.369 441.428 95.9619 481.622 104.532C523.155 112.566 551.291 255.578 683.93 306.462Z" fill="#9EB9FF"/>
</svg>
