<svg width="486" height="304" viewBox="0 0 486 304" fill="none" xmlns="http://www.w3.org/2000/svg">
<path d="M84.049 239.193C65.3214 225.452 52.4998 208.541 53.233 193.072C54.1215 177.739 68.553 163.964 75.3475 145.461C82.1419 126.958 81.2993 103.727 96.1489 90.8275C111.166 77.946 141.708 75.3793 165.039 83.7947C188.203 92.1922 204.311 111.707 225.991 126.355C247.682 140.886 274.934 150.668 283.824 164.668C292.713 178.668 283.062 196.986 265.177 206.477C247.292 215.967 221.341 216.649 201.065 226.36C180.778 236.189 166.333 255.065 146.788 259.276C127.243 263.487 102.609 252.916 84.049 239.193Z" fill="#87A8FF"/>
<path d="M380.579 153.038C375.307 176.313 363.085 198.433 344.916 210.714C326.816 222.785 302.91 224.928 277.86 235.843C252.809 246.757 226.612 266.442 203.477 267.598C180.268 268.632 160.194 251.258 156.771 229.435C153.42 207.733 166.789 181.37 171.447 155.463C175.963 129.645 171.909 104.193 182.995 86.982C194.081 69.7707 220.522 60.8319 241.446 64.4223C262.371 68.0127 277.707 84.0108 300.225 88.9451C322.885 93.7903 352.655 87.4501 368.45 96.4514C384.245 105.453 385.924 129.884 380.579 153.038Z" fill="#9195FF"/>
<path d="M227.468 146.185C226.157 133.252 248.448 123.623 270.055 120.456C291.547 117.304 312.469 120.598 319.424 132.13C326.252 143.587 319.319 163.069 331.536 176.575C343.878 190.156 375.473 197.653 384.229 210.514C392.985 223.374 378.879 241.416 359.834 248.211C340.79 255.005 316.693 250.566 294.731 248.242C272.654 245.934 252.839 245.815 250.505 236.711C248.057 227.622 263.32 209.518 258.563 192.429C253.693 175.357 228.791 159.209 227.468 146.185Z" fill="#9EA2FF"/>
<path d="M277.365 116.003C319.616 132.377 395.496 119.278 439.472 122.553C483.448 125.655 495.951 145.304 476.119 160.3C456.287 175.468 404.119 185.982 383.856 205.458C363.592 225.108 374.802 253.719 351.952 257.167C329.101 260.442 272.622 238.552 217.437 237.69C162.251 236.828 108.359 256.822 94.9937 251.306C81.1973 245.791 107.928 214.766 88.5267 196.151C69.1255 177.536 3.16149 171.158 0.143531 164.264C-3.30557 157.197 56.1914 149.441 94.1315 143.581C132.072 137.72 148.455 133.756 165.269 111.349C182.083 88.9422 199.329 48.265 212.263 51.0228C225.628 53.6082 234.682 99.6286 277.365 116.003Z" fill="#9EB9FF"/>
</svg>
