<svg width="1152" height="889" viewBox="0 0 1152 889" fill="none" xmlns="http://www.w3.org/2000/svg">
<path d="M83.1878 689.282C24.9906 646.581 -14.8536 594.031 -12.575 545.961C-9.81371 498.311 35.0331 455.506 56.1473 398.006C77.2615 340.507 74.643 268.313 120.789 228.228C167.455 188.198 262.366 180.221 334.869 206.373C406.852 232.469 456.909 293.112 524.281 338.633C591.69 383.789 676.375 414.186 704.001 457.692C731.626 501.198 701.634 558.122 646.056 587.615C590.477 617.109 509.832 619.226 446.824 649.405C383.778 679.948 338.89 738.606 278.153 751.693C217.415 764.779 140.865 731.928 83.1878 689.282Z" fill="#87A8FF"/>
<path d="M1004.19 421.44L1004.19 421.442C987.827 493.689 949.9 562.292 893.579 600.363C865.523 619.072 832.954 630.098 797.622 640.691C791.99 642.38 786.288 644.058 780.523 645.754C750.14 654.692 718.021 664.142 685.275 678.409C659.9 689.465 634.13 703.423 608.456 717.33C594.731 724.764 581.035 732.182 567.441 739.135C528.377 759.114 490.134 775.259 454.301 777.05C382.431 780.252 320.265 726.445 309.665 658.877C304.478 625.275 312.231 588.028 323.124 549.057C326.196 538.066 329.518 526.936 332.868 515.717C341.383 487.193 350.072 458.085 355.27 429.172L355.271 429.17C360.241 400.757 361.875 372.468 363.437 345.442C364.082 334.282 364.715 323.338 365.564 312.689C368.475 276.21 373.933 243.179 391.084 216.551C408.234 189.926 437.285 169.667 470.192 157.457C503.096 145.248 539.806 141.106 572.225 146.669C604.645 152.232 632.747 167.408 661.546 183.153L662.908 183.898C691.257 199.4 720.347 215.308 754.862 222.871L754.865 222.871C784.587 229.226 818.237 229.4 850.846 229.568C856.933 229.6 862.984 229.631 868.967 229.702C907.055 230.155 942.323 232.231 966.737 246.144C991.105 260.031 1004.63 285.841 1009.97 317.225C1015.32 348.61 1012.49 385.507 1004.19 421.44Z" fill="#9195FF" stroke="white"/>
<path d="M528.873 400.255C524.799 360.064 594.07 330.143 661.214 320.3C728.001 310.505 793.018 320.741 814.63 356.578C835.851 392.18 814.306 452.724 852.27 494.693C890.625 536.897 988.808 560.196 1016.02 600.161C1043.23 640.126 999.391 696.193 940.21 717.306C881.028 738.419 806.144 724.626 737.895 717.404C669.291 710.23 607.713 709.861 600.461 681.57C592.854 653.327 640.284 597.065 625.503 543.963C610.367 490.907 532.984 440.729 528.873 400.255Z" fill="#9EA2FF"/>
<path d="M683.93 306.462C815.229 357.346 1051.03 316.639 1187.69 326.816C1324.35 336.457 1363.2 397.518 1301.57 444.117C1239.94 491.252 1077.83 523.925 1014.86 584.451C951.888 645.512 986.722 734.425 915.713 745.138C844.705 755.315 669.192 687.29 497.699 684.612C326.206 681.934 158.733 744.067 117.199 726.927C74.3262 709.787 157.393 613.374 97.1026 555.527C36.8121 497.68 -168.175 477.862 -177.554 456.437C-188.272 434.476 -3.3815 410.373 114.52 392.162C232.421 373.951 283.333 361.631 335.585 292C387.837 222.369 441.428 95.9619 481.622 104.532C523.155 112.566 551.291 255.578 683.93 306.462Z" fill="#9EB9FF"/>
</svg>
