<svg width="82" height="37" viewBox="0 0 82 37" fill="none" xmlns="http://www.w3.org/2000/svg">
<path d="M28.5254 14.8574C28.7012 14.8574 28.9209 14.8818 29.1846 14.9307C29.4482 14.9697 29.6289 15.0137 29.7266 15.0625V17.5674C29.3066 17.4893 28.8623 17.4502 28.3936 17.4502C27.4951 17.4502 26.7432 17.6504 26.1377 18.0508C25.542 18.4512 25.0928 19.0127 24.79 19.7354V31H22.0508V15.1504H24.7168L24.7754 16.9521C25.1855 16.2881 25.7031 15.7754 26.3281 15.4141C26.9531 15.043 27.6855 14.8574 28.5254 14.8574ZM30.9863 22.9141C30.9863 21.3809 31.2793 20.0039 31.8652 18.7832C32.4512 17.5625 33.2861 16.6055 34.3701 15.9121C35.4639 15.209 36.7334 14.8574 38.1787 14.8574C39.6436 14.8574 40.9229 15.209 42.0166 15.9121C43.1104 16.6055 43.9502 17.5625 44.5361 18.7832C45.1221 20.0039 45.415 21.3809 45.415 22.9141V23.251C45.415 24.7842 45.1221 26.1611 44.5361 27.3818C43.9502 28.5928 43.1104 29.5498 42.0166 30.2529C40.9326 30.9463 39.6631 31.293 38.208 31.293C36.7529 31.293 35.4785 30.9463 34.3848 30.2529C33.3008 29.5498 32.4609 28.5928 31.8652 27.3818C31.2793 26.1611 30.9863 24.7842 30.9863 23.251V22.9141ZM33.7256 23.251C33.7256 24.3252 33.8916 25.3066 34.2236 26.1953C34.5654 27.084 35.0732 27.792 35.7471 28.3193C36.4209 28.8369 37.2412 29.0957 38.208 29.0957C39.165 29.0957 39.9805 28.8369 40.6543 28.3193C41.3281 27.792 41.8311 27.084 42.1631 26.1953C42.5049 25.3066 42.6758 24.3252 42.6758 23.251V22.9141C42.6758 21.8398 42.5049 20.8584 42.1631 19.9697C41.8213 19.0811 41.3135 18.373 40.6396 17.8457C39.9658 17.3184 39.1455 17.0547 38.1787 17.0547C37.2217 17.0547 36.4062 17.3184 35.7324 17.8457C35.0684 18.373 34.5654 19.0811 34.2236 19.9697C33.8916 20.8584 33.7256 21.8398 33.7256 22.9141V23.251ZM55.6396 10.4922C54.7705 10.4922 54.0967 10.751 53.6182 11.2686C53.1396 11.7764 52.9004 12.5088 52.9004 13.4658V15.1504H56.2695V17.2158H52.9004V31H50.1611V17.2158H47.6709V15.1504H50.1611V13.4658C50.1611 11.7764 50.6201 10.4775 51.5381 9.56934C52.4658 8.65137 53.75 8.19238 55.3906 8.19238C55.9863 8.19238 56.6064 8.27051 57.251 8.42676L57.1045 10.6094C56.665 10.5313 56.1768 10.4922 55.6396 10.4922ZM60.8838 9.37891C61.3916 9.37891 61.7871 9.52539 62.0703 9.81836C62.3633 10.1113 62.5098 10.4824 62.5098 10.9316C62.5098 11.3711 62.3633 11.7373 62.0703 12.0303C61.7871 12.3135 61.3916 12.4551 60.8838 12.4551C60.376 12.4551 59.9805 12.3135 59.6973 12.0303C59.4238 11.7373 59.2871 11.3711 59.2871 10.9316C59.2871 10.4824 59.4238 10.1113 59.6973 9.81836C59.9805 9.52539 60.376 9.37891 60.8838 9.37891ZM59.4922 31V15.1504H62.2314V31H59.4922ZM66.7871 31V8.5H69.5264V31H66.7871ZM74.082 31V8.5H76.8213V31H74.082Z" fill="#474747"/>
<path d="M29.1846 14.9307L29.0935 15.4223L29.1024 15.4239L29.1113 15.4253L29.1846 14.9307ZM29.7266 15.0625H30.2266V14.7535L29.9502 14.6153L29.7266 15.0625ZM29.7266 17.5674L29.6351 18.0589L30.2266 18.169V17.5674H29.7266ZM26.1377 18.0508L25.8619 17.6337L25.8588 17.6358L26.1377 18.0508ZM24.79 19.7354L24.3289 19.5422L24.29 19.6349V19.7354H24.79ZM24.79 31V31.5H25.29V31H24.79ZM22.0508 31H21.5508V31.5H22.0508V31ZM22.0508 15.1504V14.6504H21.5508V15.1504H22.0508ZM24.7168 15.1504L25.2165 15.1341L25.2008 14.6504H24.7168V15.1504ZM24.7754 16.9521L24.2757 16.9684L24.3295 18.6255L25.2008 17.2149L24.7754 16.9521ZM26.3281 15.4141L26.5784 15.847L26.5834 15.844L26.3281 15.4141ZM28.5254 15.3574C28.6592 15.3574 28.846 15.3765 29.0935 15.4223L29.2756 14.439C28.9958 14.3872 28.7432 14.3574 28.5254 14.3574V15.3574ZM29.1113 15.4253C29.2339 15.4434 29.329 15.4616 29.3996 15.4788C29.4751 15.4971 29.503 15.5098 29.503 15.5097L29.9502 14.6153C29.7734 14.5269 29.52 14.4749 29.2578 14.4361L29.1113 15.4253ZM29.2266 15.0625V17.5674H30.2266V15.0625H29.2266ZM29.818 17.0758C29.3652 16.9916 28.89 16.9502 28.3936 16.9502V17.9502C28.8346 17.9502 29.2481 17.9869 29.6351 18.0589L29.818 17.0758ZM28.3936 16.9502C27.4205 16.9502 26.5667 17.1676 25.8619 17.6337L26.4135 18.4678C26.9196 18.1332 27.5698 17.9502 28.3936 17.9502V16.9502ZM25.8588 17.6358C25.1745 18.0957 24.6658 18.738 24.3289 19.5422L25.2512 19.9285C25.5198 19.2874 25.9094 18.8066 26.4166 18.4658L25.8588 17.6358ZM24.29 19.7354V31H25.29V19.7354H24.29ZM24.79 30.5H22.0508V31.5H24.79V30.5ZM22.5508 31V15.1504H21.5508V31H22.5508ZM22.0508 15.6504H24.7168V14.6504H22.0508V15.6504ZM24.2171 15.1666L24.2757 16.9684L25.2751 16.9359L25.2165 15.1341L24.2171 15.1666ZM25.2008 17.2149C25.5711 16.6153 26.0307 16.1636 26.5784 15.8469L26.0779 14.9812C25.3756 15.3872 24.8 15.9609 24.35 16.6894L25.2008 17.2149ZM26.5834 15.844C27.1198 15.5255 27.7612 15.3574 28.5254 15.3574V14.3574C27.6099 14.3574 26.7864 14.5604 26.0729 14.9841L26.5834 15.844ZM34.3701 15.9121L34.6395 16.3333L34.6405 16.3327L34.3701 15.9121ZM42.0166 15.9121L41.7462 16.3327L41.7489 16.3344L42.0166 15.9121ZM44.5361 27.3818L44.9862 27.5996L44.9869 27.5982L44.5361 27.3818ZM42.0166 30.2529L42.286 30.6741L42.287 30.6735L42.0166 30.2529ZM34.3848 30.2529L34.1127 30.6724L34.1171 30.6752L34.3848 30.2529ZM31.8652 27.3818L31.4145 27.5982L31.4166 27.6025L31.8652 27.3818ZM34.2236 26.1953L33.7552 26.3703L33.757 26.3748L34.2236 26.1953ZM35.7471 28.3193L35.4389 28.7131L35.4425 28.7159L35.7471 28.3193ZM40.6543 28.3193L40.9589 28.7159L40.9625 28.7131L40.6543 28.3193ZM42.1631 26.1953L41.6964 26.0158L41.6947 26.0203L42.1631 26.1953ZM35.7324 17.8457L35.4243 17.4519L35.4215 17.4541L35.7324 17.8457ZM34.2236 19.9697L33.7569 19.7902L33.7553 19.7947L34.2236 19.9697ZM31.4863 22.9141C31.4863 21.4458 31.7665 20.1443 32.316 18.9996L31.4145 18.5668C30.7921 19.8635 30.4863 21.3159 30.4863 22.9141H31.4863ZM32.316 18.9996C32.8639 17.8581 33.638 16.9739 34.6395 16.3333L34.1007 15.4909C32.9342 16.237 32.0384 17.2669 31.4145 18.5668L32.316 18.9996ZM34.6405 16.3327C35.6448 15.6871 36.8182 15.3574 38.1787 15.3574V14.3574C36.6486 14.3574 35.283 14.7309 34.0997 15.4915L34.6405 16.3327ZM38.1787 15.3574C39.5602 15.3574 40.743 15.6878 41.7462 16.3327L42.287 15.4915C41.1027 14.7302 39.7269 14.3574 38.1787 14.3574V15.3574ZM41.7489 16.3344C42.7598 16.9753 43.538 17.8593 44.0854 18.9996L44.9869 18.5668C44.3624 17.2657 43.4609 16.2357 42.2843 15.4898L41.7489 16.3344ZM44.0854 18.9996C44.6348 20.1443 44.915 21.4458 44.915 22.9141H45.915C45.915 21.3159 45.6093 19.8635 44.9869 18.5668L44.0854 18.9996ZM44.915 22.9141V23.251H45.915V22.9141H44.915ZM44.915 23.251C44.915 24.7192 44.6348 26.0207 44.0854 27.1655L44.9869 27.5982C45.6093 26.3015 45.915 24.8491 45.915 23.251H44.915ZM44.0861 27.1641C43.5388 28.2951 42.7598 29.1808 41.7462 29.8323L42.287 30.6735C43.4609 29.9188 44.3616 28.8904 44.9862 27.5996L44.0861 27.1641ZM41.7472 29.8317C40.7538 30.4671 39.5804 30.793 38.208 30.793V31.793C39.7457 31.793 41.1114 31.4255 42.286 30.6741L41.7472 29.8317ZM38.208 30.793C36.8357 30.793 35.6565 30.4671 34.6525 29.8306L34.1171 30.6752C35.3005 31.4254 36.6702 31.793 38.208 31.793V30.793ZM34.6569 29.8334C33.652 29.1817 32.8716 28.2949 32.3139 27.1611L31.4166 27.6025C32.0503 28.8907 32.9495 29.9179 34.1127 30.6724L34.6569 29.8334ZM32.316 27.1655C31.7665 26.0207 31.4863 24.7192 31.4863 23.251H30.4863C30.4863 24.8491 30.7921 26.3015 31.4145 27.5982L32.316 27.1655ZM31.4863 23.251V22.9141H30.4863V23.251H31.4863ZM33.2256 23.251C33.2256 24.3771 33.3997 25.4188 33.7553 26.3703L34.692 26.0203C34.3835 25.1945 34.2256 24.2733 34.2256 23.251H33.2256ZM33.757 26.3748C34.1275 27.3381 34.686 28.1239 35.4389 28.7131L36.0552 27.9256C35.4605 27.4601 35.0034 26.8298 34.6903 26.0158L33.757 26.3748ZM35.4425 28.7159C36.2155 29.3096 37.147 29.5957 38.208 29.5957V28.5957C37.3354 28.5957 36.6263 28.3642 36.0516 27.9228L35.4425 28.7159ZM38.208 29.5957C39.2606 29.5957 40.1868 29.3089 40.9589 28.7159L40.3497 27.9228C39.7742 28.3649 39.0695 28.5957 38.208 28.5957V29.5957ZM40.9625 28.7131C41.7165 28.1229 42.2708 27.3356 42.6315 26.3703L41.6947 26.0203C41.3913 26.8324 40.9397 27.461 40.3461 27.9256L40.9625 28.7131ZM42.6298 26.3748C42.9962 25.422 43.1758 24.3788 43.1758 23.251H42.1758C42.1758 24.2716 42.0135 25.1913 41.6964 26.0158L42.6298 26.3748ZM43.1758 23.251V22.9141H42.1758V23.251H43.1758ZM43.1758 22.9141C43.1758 21.7863 42.9962 20.7431 42.6298 19.7902L41.6964 20.1492C42.0135 20.9737 42.1758 21.8934 42.1758 22.9141H43.1758ZM42.6298 19.7902C42.2592 18.8269 41.7007 18.0412 40.9478 17.452L40.3315 18.2395C40.9262 18.7049 41.3833 19.3352 41.6964 20.1492L42.6298 19.7902ZM40.9478 17.452C40.1747 16.8469 39.2419 16.5547 38.1787 16.5547V17.5547C39.0491 17.5547 39.757 17.7898 40.3315 18.2395L40.9478 17.452ZM38.1787 16.5547C37.124 16.5547 36.1965 16.8476 35.4243 17.452L36.0406 18.2395C36.616 17.7891 37.3194 17.5547 38.1787 17.5547V16.5547ZM35.4215 17.4541C34.6792 18.0436 34.1268 18.8287 33.757 19.7902L34.6903 20.1492C35.0041 19.3334 35.4575 18.7025 36.0434 18.2373L35.4215 17.4541ZM33.7553 19.7947C33.3997 20.7463 33.2256 21.7879 33.2256 22.9141H34.2256C34.2256 21.8918 34.3835 20.9705 34.692 20.1447L33.7553 19.7947ZM33.2256 22.9141V23.251H34.2256V22.9141H33.2256ZM53.6182 11.2686L53.9821 11.6115L53.9853 11.608L53.6182 11.2686ZM52.9004 15.1504H52.4004V15.6504H52.9004V15.1504ZM56.2695 15.1504H56.7695V14.6504H56.2695V15.1504ZM56.2695 17.2158V17.7158H56.7695V17.2158H56.2695ZM52.9004 17.2158V16.7158H52.4004V17.2158H52.9004ZM52.9004 31V31.5H53.4004V31H52.9004ZM50.1611 31H49.6611V31.5H50.1611V31ZM50.1611 17.2158H50.6611V16.7158H50.1611V17.2158ZM47.6709 17.2158H47.1709V17.7158H47.6709V17.2158ZM47.6709 15.1504V14.6504H47.1709V15.1504H47.6709ZM50.1611 15.1504V15.6504H50.6611V15.1504H50.1611ZM51.5381 9.56934L51.8897 9.92477L51.8898 9.92476L51.5381 9.56934ZM57.251 8.42676L57.7499 8.46024L57.7781 8.04005L57.3688 7.94083L57.251 8.42676ZM57.1045 10.6094L57.017 11.1017L57.566 11.1993L57.6034 10.6429L57.1045 10.6094ZM55.6396 9.99219C54.666 9.99219 53.8455 10.2861 53.251 10.9291L53.9853 11.608C54.3478 11.2159 54.875 10.9922 55.6396 10.9922V9.99219ZM53.2543 10.9257C52.6602 11.5561 52.4004 12.4293 52.4004 13.4658H53.4004C53.4004 12.5883 53.6191 11.9966 53.9821 11.6115L53.2543 10.9257ZM52.4004 13.4658V15.1504H53.4004V13.4658H52.4004ZM52.9004 15.6504H56.2695V14.6504H52.9004V15.6504ZM55.7695 15.1504V17.2158H56.7695V15.1504H55.7695ZM56.2695 16.7158H52.9004V17.7158H56.2695V16.7158ZM52.4004 17.2158V31H53.4004V17.2158H52.4004ZM52.9004 30.5H50.1611V31.5H52.9004V30.5ZM50.6611 31V17.2158H49.6611V31H50.6611ZM50.1611 16.7158H47.6709V17.7158H50.1611V16.7158ZM48.1709 17.2158V15.1504H47.1709V17.2158H48.1709ZM47.6709 15.6504H50.1611V14.6504H47.6709V15.6504ZM50.6611 15.1504V13.4658H49.6611V15.1504H50.6611ZM50.6611 13.4658C50.6611 11.867 51.0934 10.7127 51.8897 9.92477L51.1864 9.2139C50.1469 10.2424 49.6611 11.6857 49.6611 13.4658H50.6611ZM51.8898 9.92476C52.7013 9.12178 53.8461 8.69238 55.3906 8.69238V7.69238C53.6539 7.69238 52.2304 8.18096 51.1864 9.21392L51.8898 9.92476ZM55.3906 8.69238C55.9425 8.69238 56.5229 8.76474 57.1332 8.91268L57.3688 7.94083C56.69 7.77627 56.0302 7.69238 55.3906 7.69238V8.69238ZM56.7521 8.39328L56.6056 10.5759L57.6034 10.6429L57.7499 8.46024L56.7521 8.39328ZM57.192 10.1171C56.7186 10.0329 56.2004 9.99219 55.6396 9.99219V10.9922C56.1531 10.9922 56.6115 11.0296 57.017 11.1017L57.192 10.1171ZM62.0703 9.81836L61.7108 10.1659L61.7168 10.1719L62.0703 9.81836ZM59.6973 12.0303L59.3317 12.3714L59.3376 12.3777L59.3437 12.3838L59.6973 12.0303ZM59.6973 9.81836L59.3377 9.47079L59.3317 9.4772L59.6973 9.81836ZM59.4922 31H58.9922V31.5H59.4922V31ZM59.4922 15.1504V14.6504H58.9922V15.1504H59.4922ZM62.2314 15.1504H62.7314V14.6504H62.2314V15.1504ZM62.2314 31V31.5H62.7314V31H62.2314ZM60.8838 9.87891C61.2915 9.87891 61.5439 9.99322 61.7108 10.1659L62.4298 9.47085C62.0303 9.05756 61.4917 8.87891 60.8838 8.87891V9.87891ZM61.7168 10.1719C61.9076 10.3627 62.0098 10.6027 62.0098 10.9316H63.0098C63.0098 10.3621 62.819 9.85991 62.4239 9.46481L61.7168 10.1719ZM62.0098 10.9316C62.0098 11.2474 61.9098 11.4836 61.7168 11.6767L62.4239 12.3838C62.8167 11.991 63.0098 11.4948 63.0098 10.9316H62.0098ZM61.7168 11.6767C61.5508 11.8427 61.2963 11.9551 60.8838 11.9551V12.9551C61.4869 12.9551 62.0234 12.7843 62.4239 12.3838L61.7168 11.6767ZM60.8838 11.9551C60.4712 11.9551 60.2168 11.8427 60.0508 11.6767L59.3437 12.3838C59.7441 12.7843 60.2807 12.9551 60.8838 12.9551V11.9551ZM60.0628 11.6891C59.8844 11.498 59.7871 11.2578 59.7871 10.9316H58.7871C58.7871 11.4844 58.9632 11.9766 59.3317 12.3714L60.0628 11.6891ZM59.7871 10.9316C59.7871 10.5925 59.8864 10.3485 60.0628 10.1595L59.3317 9.4772C58.9612 9.87419 58.7871 10.3723 58.7871 10.9316H59.7871ZM60.0568 10.1659C60.2237 9.99322 60.476 9.87891 60.8838 9.87891V8.87891C60.2759 8.87891 59.7373 9.05756 59.3378 9.47085L60.0568 10.1659ZM59.9922 31V15.1504H58.9922V31H59.9922ZM59.4922 15.6504H62.2314V14.6504H59.4922V15.6504ZM61.7314 15.1504V31H62.7314V15.1504H61.7314ZM62.2314 30.5H59.4922V31.5H62.2314V30.5ZM66.7871 31H66.2871V31.5H66.7871V31ZM66.7871 8.5V8H66.2871V8.5H66.7871ZM69.5264 8.5H70.0264V8H69.5264V8.5ZM69.5264 31V31.5H70.0264V31H69.5264ZM67.2871 31V8.5H66.2871V31H67.2871ZM66.7871 9H69.5264V8H66.7871V9ZM69.0264 8.5V31H70.0264V8.5H69.0264ZM69.5264 30.5H66.7871V31.5H69.5264V30.5ZM74.082 31H73.582V31.5H74.082V31ZM74.082 8.5V8H73.582V8.5H74.082ZM76.8213 8.5H77.3213V8H76.8213V8.5ZM76.8213 31V31.5H77.3213V31H76.8213ZM74.582 31V8.5H73.582V31H74.582ZM74.082 9H76.8213V8H74.082V9ZM76.3213 8.5V31H77.3213V8.5H76.3213ZM76.8213 30.5H74.082V31.5H76.8213V30.5Z" fill="white"/>
<path d="M10.3564 9.67188C11.9287 9.67188 13.2764 9.9502 14.3994 10.5068C15.5322 11.0537 16.3867 11.8154 16.9629 12.792C17.5488 13.7686 17.8418 14.8965 17.8418 16.1758C17.8418 17.543 17.5537 18.71 16.9775 19.6768C16.4014 20.6436 15.5518 21.3809 14.4287 21.8887C13.3154 22.3867 11.958 22.6357 10.3564 22.6357H5.31738V31H2.47559V9.67188H10.3564ZM10.3564 20.3506C11.9385 20.3506 13.1055 19.9795 13.8574 19.2373C14.6191 18.4951 15 17.4844 15 16.2051C15 15.4336 14.834 14.7305 14.502 14.0957C14.1797 13.4512 13.667 12.9385 12.9639 12.5576C12.2705 12.167 11.4014 11.9717 10.3564 11.9717H5.31738V20.3506H10.3564Z" fill="#9095FF"/>
<path d="M10.3564 9.67188C11.9287 9.67188 13.2764 9.9502 14.3994 10.5068C15.5322 11.0537 16.3867 11.8154 16.9629 12.792C17.5488 13.7686 17.8418 14.8965 17.8418 16.1758C17.8418 17.543 17.5537 18.71 16.9775 19.6768C16.4014 20.6436 15.5518 21.3809 14.4287 21.8887C13.3154 22.3867 11.958 22.6357 10.3564 22.6357H5.31738V31H2.47559V9.67188H10.3564ZM10.3564 20.3506C11.9385 20.3506 13.1055 19.9795 13.8574 19.2373C14.6191 18.4951 15 17.4844 15 16.2051C15 15.4336 14.834 14.7305 14.502 14.0957C14.1797 13.4512 13.667 12.9385 12.9639 12.5576C12.2705 12.167 11.4014 11.9717 10.3564 11.9717H5.31738V20.3506H10.3564Z" fill="url(#paint0_linear)"/>
<path d="M14.3994 10.5068L14.1774 10.9549L14.182 10.9571L14.3994 10.5068ZM16.9629 12.792L16.5322 13.0461L16.5341 13.0492L16.9629 12.792ZM14.4287 21.8887L14.6329 22.3451L14.6347 22.3443L14.4287 21.8887ZM5.31738 22.6357V22.1357H4.81738V22.6357H5.31738ZM5.31738 31V31.5H5.81738V31H5.31738ZM2.47559 31H1.97559V31.5H2.47559V31ZM2.47559 9.67188V9.17188H1.97559V9.67188H2.47559ZM13.8574 19.2373L13.5085 18.8792L13.5062 18.8814L13.8574 19.2373ZM14.502 14.0957L14.0547 14.3193L14.0589 14.3275L14.502 14.0957ZM12.9639 12.5576L12.7184 12.9933L12.7257 12.9973L12.9639 12.5576ZM5.31738 11.9717V11.4717H4.81738V11.9717H5.31738ZM5.31738 20.3506H4.81738V20.8506H5.31738V20.3506ZM10.3564 10.1719C11.8708 10.1719 13.1386 10.44 14.1774 10.9548L14.6215 10.0588C13.4141 9.46041 11.9866 9.17188 10.3564 9.17188V10.1719ZM14.182 10.9571C15.2361 11.4659 16.0117 12.1637 16.5323 13.0461L17.3935 12.5379C16.7618 11.4672 15.8284 10.6415 14.6168 10.0566L14.182 10.9571ZM16.5341 13.0492C17.0679 13.9388 17.3418 14.9757 17.3418 16.1758H18.3418C18.3418 14.8173 18.0298 13.5983 17.3916 12.5347L16.5341 13.0492ZM17.3418 16.1758C17.3418 17.4722 17.0691 18.5465 16.548 19.4208L17.407 19.9327C18.0383 18.8734 18.3418 17.6137 18.3418 16.1758H17.3418ZM16.548 19.4208C16.0292 20.2914 15.2619 20.9632 14.2227 21.4331L14.6347 22.3443C15.8416 21.7985 16.7736 20.9957 17.407 19.9327L16.548 19.4208ZM14.2245 21.4323C13.1922 21.8941 11.9087 22.1357 10.3564 22.1357V23.1357C12.0073 23.1357 13.4386 22.8794 14.6329 22.3451L14.2245 21.4323ZM10.3564 22.1357H5.31738V23.1357H10.3564V22.1357ZM4.81738 22.6357V31H5.81738V22.6357H4.81738ZM5.31738 30.5H2.47559V31.5H5.31738V30.5ZM2.97559 31V9.67188H1.97559V31H2.97559ZM2.47559 10.1719H10.3564V9.17188H2.47559V10.1719ZM10.3564 20.8506C12.0054 20.8506 13.3255 20.4648 14.2087 19.5932L13.5062 18.8814C12.8854 19.4941 11.8715 19.8506 10.3564 19.8506V20.8506ZM14.2064 19.5954C15.0839 18.7404 15.5 17.5898 15.5 16.2051H14.5C14.5 17.3789 14.1544 18.2498 13.5085 18.8792L14.2064 19.5954ZM15.5 16.2051C15.5 15.3592 15.3173 14.5757 14.945 13.864L14.0589 14.3275C14.3507 14.8853 14.5 15.5079 14.5 16.2051H15.5ZM14.9492 13.8721C14.576 13.1258 13.985 12.5421 13.202 12.118L12.7257 12.9973C13.349 13.3349 13.7833 13.7765 14.0547 14.3193L14.9492 13.8721ZM13.2093 12.122C12.4212 11.678 11.4612 11.4717 10.3564 11.4717V12.4717C11.3415 12.4717 12.1199 12.656 12.7184 12.9932L13.2093 12.122ZM10.3564 11.4717H5.31738V12.4717H10.3564V11.4717ZM4.81738 11.9717V20.3506H5.81738V11.9717H4.81738ZM5.31738 20.8506H10.3564V19.8506H5.31738V20.8506Z" fill="white"/>
<defs>
<linearGradient id="paint0_linear" x1="9.5" y1="0" x2="9.5" y2="37" gradientUnits="userSpaceOnUse">
<stop stop-color="#1382DE"/>
<stop offset="1" stop-color="white" stop-opacity="0"/>
</linearGradient>
</defs>
</svg>
