<?xml version="1.0" encoding="UTF-8" standalone="no"?>
<!DOCTYPE svg PUBLIC "-//W3C//DTD SVG 1.1//EN" "http://www.w3.org/Graphics/SVG/1.1/DTD/svg11.dtd">
<svg width="100%" height="100%" viewBox="0 0 400 400" version="1.1" xmlns="http://www.w3.org/2000/svg" xmlns:xlink="http://www.w3.org/1999/xlink" xml:space="preserve" xmlns:serif="http://www.serif.com/" style="fill-rule:evenodd;clip-rule:evenodd;stroke-linejoin:round;stroke-miterlimit:2;">
    <g transform="matrix(1.50541,0,0,1.40079,-7.38022,-9.04212)">
        <rect x="4.902" y="6.455" width="265.709" height="285.553" style="fill:rgb(255,218,30);"/>
    </g>
    <g transform="matrix(1,0,0,1,3.86246,-24.3403)">
        <g transform="matrix(2.58323,0,0,1.06633,-225.911,1.15114)">
            <path d="M164.876,191.075L220.08,273.881L164.876,301.483L109.672,273.881L164.876,191.075Z" style="fill:rgb(255,162,43);"/>
        </g>
        <g transform="matrix(1,0,0,1,0,22)">
            <g transform="matrix(1.37974,0,0,1.79428,0.144535,-99.9304)">
                <g transform="matrix(0.562031,0,0,0.562031,20.0374,58.7475)">
                    <circle cx="58.611" cy="130.472" r="32.725"/>
                </g>
                <g transform="matrix(1,0,0,1,0,-2.46616)">
                    <circle cx="56.77" cy="128.838" r="4.618" style="fill:white;"/>
                </g>
            </g>
            <g transform="matrix(1.37974,0,0,1.79428,245.937,-99.9304)">
                <g transform="matrix(0.562031,0,0,0.562031,20.0374,58.7475)">
                    <circle cx="58.611" cy="130.472" r="32.725"/>
                </g>
                <g transform="matrix(1,0,0,1,-7.97251,-2.46616)">
                    <circle cx="56.77" cy="128.838" r="4.618" style="fill:white;"/>
                </g>
            </g>
        </g>
    </g>
</svg>
