<svg width="24" height="24" viewBox="0 0 24 24" fill="none" xmlns="http://www.w3.org/2000/svg">
<path d="M16.8503 0H7.14973C3.20735 0 0 3.20735 0 7.14973V16.8503C0 20.7926 3.20735 24 7.14973 24H16.8503C20.7926 24 24 20.7926 24 16.8503V7.14973C24 3.20735 20.7926 0 16.8503 0ZM21.5856 16.8503C21.5856 19.4655 19.4655 21.5856 16.8503 21.5856H7.14973C4.5345 21.5856 2.4144 19.4655 2.4144 16.8503V7.14973C2.4144 4.53446 4.5345 2.4144 7.14973 2.4144H16.8503C19.4655 2.4144 21.5856 4.53446 21.5856 7.14973V16.8503Z" fill="url(#paint0_linear)"/>
<path d="M12 5.79274C8.57732 5.79274 5.79276 8.57731 5.79276 12C5.79276 15.4226 8.57732 18.2072 12 18.2072C15.4227 18.2072 18.2073 15.4226 18.2073 12C18.2073 8.57726 15.4227 5.79274 12 5.79274ZM12 15.7928C9.90526 15.7928 8.20715 14.0947 8.20715 12C8.20715 9.90524 9.9053 8.20714 12 8.20714C14.0948 8.20714 15.7929 9.90524 15.7929 12C15.7929 14.0947 14.0947 15.7928 12 15.7928Z" fill="url(#paint1_linear)"/>
<path d="M18.2193 7.32674C19.0407 7.32674 19.7066 6.66081 19.7066 5.83935C19.7066 5.01789 19.0407 4.35196 18.2193 4.35196C17.3978 4.35196 16.7319 5.01789 16.7319 5.83935C16.7319 6.66081 17.3978 7.32674 18.2193 7.32674Z" fill="url(#paint2_linear)"/>
<defs>
<linearGradient id="paint0_linear" x1="12" y1="23.9301" x2="12" y2="0.186412" gradientUnits="userSpaceOnUse">
<stop stop-color="#E09B3D"/>
<stop offset="0.3" stop-color="#C74C4D"/>
<stop offset="0.6" stop-color="#C21975"/>
<stop offset="1" stop-color="#7024C4"/>
</linearGradient>
<linearGradient id="paint1_linear" x1="12" y1="23.9301" x2="12" y2="0.186407" gradientUnits="userSpaceOnUse">
<stop stop-color="#E09B3D"/>
<stop offset="0.3" stop-color="#C74C4D"/>
<stop offset="0.6" stop-color="#C21975"/>
<stop offset="1" stop-color="#7024C4"/>
</linearGradient>
<linearGradient id="paint2_linear" x1="18.2193" y1="23.9302" x2="18.2193" y2="0.186399" gradientUnits="userSpaceOnUse">
<stop stop-color="#E09B3D"/>
<stop offset="0.3" stop-color="#C74C4D"/>
<stop offset="0.6" stop-color="#C21975"/>
<stop offset="1" stop-color="#7024C4"/>
</linearGradient>
</defs>
</svg>
