<svg width="25" height="25" viewBox="0 0 25 25" fill="none" xmlns="http://www.w3.org/2000/svg">
<path d="M12.5 0.5C5.87321 0.5 0.5 5.87321 0.5 12.5C0.5 19.1268 5.87321 24.5 12.5 24.5C19.1268 24.5 24.5 19.1268 24.5 12.5C24.5 5.87321 19.1268 0.5 12.5 0.5ZM18.267 9.54554C18.275 9.67143 18.275 9.80268 18.275 9.93125C18.275 13.8634 15.2804 18.3929 9.80804 18.3929C8.12054 18.3929 6.55625 17.9027 5.23839 17.0589C5.47946 17.0857 5.70982 17.0964 5.95625 17.0964C7.34911 17.0964 8.62946 16.625 9.65 15.8268C8.34286 15.8 7.24464 14.9429 6.86964 13.7643C7.32768 13.8313 7.74018 13.8313 8.21161 13.7107C7.53855 13.574 6.93359 13.2084 6.49951 12.6762C6.06542 12.144 5.82898 11.4779 5.83036 10.7911V10.7536C6.22411 10.9759 6.6875 11.1125 7.17232 11.1312C6.76476 10.8596 6.43051 10.4916 6.19923 10.0599C5.96794 9.62817 5.84676 9.14603 5.84643 8.65625C5.84643 8.10179 5.99107 7.59554 6.25089 7.15625C6.99795 8.0759 7.93017 8.82806 8.98696 9.36384C10.0437 9.89961 11.2014 10.207 12.3848 10.2661C11.9643 8.24375 13.475 6.60714 15.2911 6.60714C16.1482 6.60714 16.9196 6.96607 17.4634 7.54464C18.1357 7.41875 18.7786 7.16696 19.3518 6.82946C19.1295 7.51786 18.6634 8.09911 18.0446 8.46607C18.6446 8.40179 19.2232 8.23571 19.7589 8.00268C19.3545 8.59732 18.8482 9.125 18.267 9.54554V9.54554Z" fill="#1DA1F2"/>
</svg>
